<svg width="97" height="91" viewBox="0 0 97 91" fill="none" xmlns="http://www.w3.org/2000/svg">
<path opacity="0.3" d="M95.3833 8.08337V17.7834H1.61664V8.08337C1.61664 4.51192 4.51186 1.6167 8.08331 1.6167H88.9166C92.4881 1.6167 95.3833 4.51192 95.3833 8.08337Z" fill="#7951F9"/>
<path opacity="0.6" d="M88.9167 1.6167H84.0667C87.6381 1.6167 90.5333 4.51192 90.5333 8.08337V17.7834H95.3833V8.08337C95.3833 4.51192 92.4881 1.6167 88.9167 1.6167Z" fill="#8A67FA"/>
<path opacity="0.1" d="M95.3833 17.7833V82.45C95.3833 86.0214 92.4881 88.9167 88.9166 88.9167H8.08331C4.51186 88.9167 1.61664 86.0214 1.61664 82.45V17.7833H95.3833Z" fill="#7951F9"/>
<path d="M90.5333 17.7833V82.45C90.5333 86.0214 87.6381 88.9167 84.0667 88.9167H88.9167C92.4881 88.9167 95.3833 86.0214 95.3833 82.45V17.7833H90.5333Z" fill="#CAD9FC"/>
<path d="M8.08331 88.9167H12.9333C9.36186 88.9167 6.46664 86.0215 6.46664 82.4501V8.08337C6.46664 4.51192 9.36186 1.6167 12.9333 1.6167H8.08331C4.51186 1.6167 1.61664 4.51192 1.61664 8.08337V82.4501C1.61664 86.0215 4.51186 88.9167 8.08331 88.9167Z" fill="white"/>
<path d="M0 69.5167H3.23333V82.4501H0V69.5167Z" fill="white"/>
<path d="M1.61667 77.6C2.50953 77.6 3.23333 76.8762 3.23333 75.9834C3.23333 75.0905 2.50953 74.3667 1.61667 74.3667C0.723806 74.3667 0 75.0905 0 75.9834C0 76.8762 0.723806 77.6 1.61667 77.6Z" fill="#7951F9"/>
<path d="M8.08333 90.5333H88.9167C93.3788 90.528 96.9947 86.9121 97 82.45V8.08333C96.9947 3.62125 93.3788 0.00534489 88.9167 0H8.08333C3.62125 0.00534489 0.00534489 3.62125 0 8.08333V69.5167C0 70.4095 0.723806 71.1333 1.61667 71.1333C2.50953 71.1333 3.23333 70.4095 3.23333 69.5167V19.4H11.3167C12.2095 19.4 12.9333 18.6762 12.9333 17.7833C12.9333 16.8905 12.2095 16.1667 11.3167 16.1667H3.23333V8.08333C3.23333 5.40475 5.40475 3.23333 8.08333 3.23333H88.9167C91.5952 3.23333 93.7667 5.40475 93.7667 8.08333V16.1667H21.0167C20.1238 16.1667 19.4 16.8905 19.4 17.7833C19.4 18.6762 20.1238 19.4 21.0167 19.4H93.7667V82.45C93.7667 85.1286 91.5952 87.3 88.9167 87.3H8.08333C5.40475 87.3 3.23333 85.1286 3.23333 82.45C3.23333 81.5572 2.50953 80.8333 1.61667 80.8333C0.723806 80.8333 0 81.5572 0 82.45C0.00534489 86.9121 3.62125 90.528 8.08333 90.5333Z" fill="#7951F9"/>
<path d="M9.69998 11.3167C10.5928 11.3167 11.3166 10.5929 11.3166 9.70004C11.3166 8.80718 10.5928 8.08337 9.69998 8.08337C8.80712 8.08337 8.08331 8.80718 8.08331 9.70004C8.08331 10.5929 8.80712 11.3167 9.69998 11.3167Z" fill="#7951F9"/>
<path d="M16.1667 11.3167C17.0595 11.3167 17.7833 10.5929 17.7833 9.70004C17.7833 8.80718 17.0595 8.08337 16.1667 8.08337C15.2738 8.08337 14.55 8.80718 14.55 9.70004C14.55 10.5929 15.2738 11.3167 16.1667 11.3167Z" fill="#7951F9"/>
<path d="M22.6333 11.3167C23.5262 11.3167 24.25 10.5929 24.25 9.70004C24.25 8.80718 23.5262 8.08337 22.6333 8.08337C21.7405 8.08337 21.0167 8.80718 21.0167 9.70004C21.0167 10.5929 21.7405 11.3167 22.6333 11.3167Z" fill="#7951F9"/>
<path d="M63.05 11.3167C63.9428 11.3167 64.6667 10.5929 64.6667 9.70004C64.6667 8.80718 63.9428 8.08337 63.05 8.08337H61.4333C60.5405 8.08337 59.8167 8.80718 59.8167 9.70004C59.8167 10.5929 60.5405 11.3167 61.4333 11.3167H63.05Z" fill="#7951F9"/>
<path d="M87.3 11.3167C88.1929 11.3167 88.9167 10.5929 88.9167 9.70004C88.9167 8.80718 88.1929 8.08337 87.3 8.08337H69.5167C68.6238 8.08337 67.9 8.80718 67.9 9.70004C67.9 10.5929 68.6238 11.3167 69.5167 11.3167H87.3Z" fill="#7951F9"/>
<path d="M11.2326 51.7333C11.2378 53.0837 11.8027 54.3715 12.7927 55.29L31.2356 72.3135C31.5334 72.5923 31.9255 72.7482 32.3333 72.75C32.9994 72.7506 33.5976 72.3427 33.8403 71.7225C34.0831 71.1023 33.9206 70.3967 33.4311 69.9451L14.9881 52.9216C14.6564 52.6155 14.4677 52.1847 14.4677 51.7333C14.4677 51.2819 14.6564 50.8511 14.9881 50.5451L24.6736 41.6049C25.3298 40.9986 25.3704 39.9752 24.7641 39.3189C24.1579 38.6627 23.1344 38.6221 22.4781 39.2284L12.7927 48.1766C11.8021 49.0947 11.2371 50.3827 11.2326 51.7333Z" fill="#7951F9"/>
<path d="M30.1977 36.506L33.431 33.5216C34.0872 32.9154 34.1278 31.8919 33.5215 31.2357C32.9153 30.5794 31.8918 30.5389 31.2356 31.1451L28.0022 34.1295C27.346 34.7358 27.3054 35.7592 27.9117 36.4155C28.5179 37.0717 29.5414 37.1123 30.1977 36.506Z" fill="#7951F9"/>
<path d="M63.5689 69.9451C62.9126 70.5514 62.8721 71.5749 63.4784 72.2311C64.0846 72.8874 65.1081 72.9279 65.7643 72.3217L84.2073 55.2901C85.202 54.3719 85.7678 53.0798 85.7678 51.7261C85.7678 50.3724 85.202 49.0803 84.2073 48.1622L65.7643 31.1451C65.1081 30.5389 64.0846 30.5794 63.4784 31.2357C62.8721 31.8919 62.9126 32.9154 63.5689 33.5216L82.0118 50.5451C82.3436 50.8512 82.5323 51.282 82.5323 51.7334C82.5323 52.1848 82.3436 52.6156 82.0118 52.9216L63.5689 69.9451Z" fill="#7951F9"/>
<path d="M40.027 64.1025L59.427 41.4692C59.9671 40.7882 59.8721 39.802 59.212 39.2367C58.5518 38.6713 57.5628 38.7291 56.9729 39.3675L37.5729 62.0008C37.1711 62.4357 37.0392 63.0555 37.2291 63.6163C37.419 64.1772 37.9003 64.5894 38.4836 64.6907C39.067 64.7921 39.6591 64.5664 40.027 64.1025Z" fill="#7951F9"/>
<path d="M75.9833 80.8334C75.0904 80.8334 74.3666 81.5572 74.3666 82.45C74.3666 83.3429 75.0904 84.0667 75.9833 84.0667H80.8333C81.7262 84.0667 82.45 83.3429 82.45 82.45C82.45 81.5572 81.7262 80.8334 80.8333 80.8334H75.9833Z" fill="#7951F9"/>
<path d="M87.3 84.0667H88.9166C89.8095 84.0667 90.5333 83.3429 90.5333 82.45C90.5333 81.5572 89.8095 80.8334 88.9166 80.8334H87.3C86.4071 80.8334 85.6833 81.5572 85.6833 82.45C85.6833 83.3429 86.4071 84.0667 87.3 84.0667Z" fill="#7951F9"/>
</svg>
