<svg width="99" height="90" viewBox="0 0 99 90" fill="none" xmlns="http://www.w3.org/2000/svg">
<path opacity="0.1" d="M94.5678 51.841C98.2719 47.6858 98.2719 41.4137 94.5678 37.2584C86.0506 27.54 69.0623 11.5499 49.4967 11.5499C29.9311 11.5499 12.9428 27.54 4.42557 37.2584C0.721566 41.4137 0.721566 47.6858 4.42557 51.841C12.9428 61.5595 29.9311 77.5495 49.4967 77.5495C69.0623 77.5495 86.0506 61.5595 94.5678 51.841Z" fill="#7951F9"/>
<path opacity="0.5" d="M94.5679 37.2584C86.0506 27.54 69.0623 11.5499 49.4967 11.5499C48.6717 11.5499 47.8467 11.5895 47.0217 11.644C65.5379 12.9062 81.462 27.9525 89.6179 37.2584C93.3219 41.4137 93.3219 47.6858 89.6179 51.841C81.462 61.147 65.5379 76.1933 47.0217 77.4555C47.8467 77.5099 48.6717 77.5495 49.4967 77.5495C69.0623 77.5495 86.0506 61.5595 94.5679 51.841C98.2719 47.6858 98.2719 41.4137 94.5679 37.2584Z" fill="#7951F9"/>
<path opacity="0.2" d="M49.4967 69.2996C63.1657 69.2996 74.2466 58.2187 74.2466 44.5498C74.2466 30.8808 63.1657 19.7999 49.4967 19.7999C35.8277 19.7999 24.7469 30.8808 24.7469 44.5498C24.7469 58.2187 35.8277 69.2996 49.4967 69.2996Z" fill="#7951F9"/>
<path opacity="0.5" d="M49.4967 19.7999C48.6618 19.7999 47.8352 19.8445 47.0217 19.9253C59.6628 21.2027 69.2833 31.8443 69.2833 44.5498C69.2833 57.2552 59.6628 67.8969 47.0217 69.1742C47.8352 69.2551 48.6618 69.2996 49.4967 69.2996C63.1657 69.2996 74.2466 58.2187 74.2466 44.5498C74.2466 30.8808 63.1657 19.7999 49.4967 19.7999Z" fill="#7951F9"/>
<path opacity="0.5" d="M49.4967 51.1498C53.1417 51.1498 56.0967 48.1948 56.0967 44.5498C56.0967 40.9047 53.1417 37.9498 49.4967 37.9498C45.8516 37.9498 42.8967 40.9047 42.8967 44.5498C42.8967 48.1948 45.8516 51.1498 49.4967 51.1498Z" fill="#7951F9"/>
<path d="M4.42557 51.841C16.2445 65.3247 33.2625 78.4059 51.3232 77.5033C51.5641 77.4918 51.8017 77.4538 52.0426 77.4373C35.5741 76.3252 20.2655 64.2671 9.37555 51.841C5.67154 47.6858 5.67154 41.4137 9.37555 37.2584C20.5658 24.4908 35.6978 12.7627 52.0971 11.6605C33.8119 10.4296 16.7329 23.2104 4.42557 37.2584C0.721566 41.4137 0.721566 47.6858 4.42557 51.841Z" fill="white"/>
<path d="M12.6128 26.6556L14.8073 29.1207C11.5779 32.0094 8.52537 35.0901 5.66636 38.3458L3.19138 36.1711C6.13758 32.8127 9.28378 29.6351 12.6128 26.6556Z" fill="white"/>
<path d="M8.94983 34.0739C8.36034 34.0769 7.81406 33.7651 7.51677 33.2561C7.21947 32.747 7.21633 32.1181 7.50852 31.6061C7.80071 31.0941 8.34384 30.7769 8.93333 30.7739H8.94983C9.86109 30.7739 10.5998 31.5127 10.5998 32.4239C10.5998 33.3352 9.86109 34.0739 8.94983 34.0739Z" fill="#7951F9"/>
<path d="M49.4967 79.1995C69.7536 79.1995 87.2072 62.7392 95.8086 52.9283C100.064 48.153 100.064 40.9464 95.8086 36.171C87.2072 26.3602 69.7536 9.8999 49.4967 9.8999C42.5152 10.0521 35.6609 11.7983 29.4576 15.005C27.8851 15.7211 26.4298 16.6368 24.9234 17.4651C23.4846 18.3974 22.0029 19.2702 20.6334 20.2866C17.8347 22.2442 15.1584 24.3712 12.6194 26.6556C12.2876 26.9444 12.0864 27.355 12.0615 27.7943C12.0367 28.2335 12.1903 28.6642 12.4874 28.9886C13.0986 29.6568 14.1311 29.7153 14.8139 29.1206C17.2576 26.9213 19.8336 24.8737 22.5276 22.9893C23.8476 22.0108 25.26 21.1842 26.6311 20.2915C28.0617 19.5094 29.4477 18.6333 30.9211 17.9618C36.6696 14.9807 43.023 13.352 49.4967 13.1999C68.4534 13.1999 85.0952 28.9556 93.327 38.3457C96.4784 41.8814 96.4784 47.218 93.327 50.7537C85.0952 60.1438 68.4534 75.8995 49.4967 75.8995C30.54 75.8995 13.8982 60.1438 5.66636 50.7537C2.51499 47.218 2.51499 41.8814 5.66636 38.3457C6.20562 37.6568 6.1134 36.6667 5.45617 36.0892C4.79894 35.5117 3.80522 35.5476 3.19137 36.171C-1.06379 40.9464 -1.06379 48.153 3.19137 52.9283C11.7862 62.7392 29.2398 79.1995 49.4967 79.1995Z" fill="#7951F9"/>
<path d="M70.1216 58.3338C70.5007 58.5525 70.9513 58.6115 71.374 58.4979C71.7967 58.3844 72.1569 58.1075 72.3755 57.7283C79.1406 45.9906 75.923 31.0373 64.9287 23.1211C53.9345 15.205 38.7326 16.8957 29.7464 27.0342C20.7602 37.1726 20.9068 52.4675 30.0857 62.4318C39.2646 72.3961 54.4961 73.7952 65.3366 65.6697C65.8082 65.316 66.0553 64.7376 65.9848 64.1523C65.9142 63.5671 65.5369 63.0639 64.9948 62.8323C64.4527 62.6008 63.8282 62.676 63.3566 63.0297C59.3654 66.0425 54.4973 67.6652 49.4967 67.6497C39.0488 67.6459 29.9051 60.6274 27.2005 50.5357C24.4959 40.444 28.9043 29.7935 37.95 24.5654C46.9957 19.3373 58.4249 20.8343 65.819 28.2156C73.2132 35.597 74.73 47.0235 69.5177 56.0783C69.2984 56.4574 69.2388 56.9082 69.3521 57.3312C69.4653 57.7543 69.7422 58.115 70.1216 58.3338Z" fill="#7951F9"/>
<path d="M32.4787 38.0124C32.0575 37.8936 31.6063 37.947 31.2245 38.1608C30.8426 38.3746 30.5614 38.7314 30.4426 39.1526C29.9467 40.9087 29.6958 42.7249 29.6968 44.5497C29.6968 45.461 30.4355 46.1997 31.3468 46.1997C32.2581 46.1997 32.9968 45.461 32.9968 44.5497C32.9964 43.0274 33.2052 41.5123 33.6172 40.0469C33.8637 39.1708 33.3543 38.2605 32.4787 38.0124Z" fill="#7951F9"/>
<path d="M51.1467 26.3999C51.1467 25.4886 50.408 24.7499 49.4967 24.7499C44.0422 24.7283 38.825 26.9786 35.0972 30.9605C34.4867 31.625 34.5234 32.6568 35.1795 33.2764C35.8356 33.8959 36.8678 33.8735 37.4963 33.2259C40.6034 29.908 44.9511 28.0328 49.4967 28.0499C50.408 28.0499 51.1467 27.3112 51.1467 26.3999Z" fill="#7951F9"/>
<path d="M49.4967 52.7997C54.053 52.7997 57.7466 49.1061 57.7466 44.5498C57.7466 39.9934 54.053 36.2998 49.4967 36.2998C44.9403 36.2998 41.2467 39.9934 41.2467 44.5498C41.2522 49.1038 44.9426 52.7943 49.4967 52.7997ZM49.4967 39.5998C52.2305 39.5998 54.4466 41.816 54.4466 44.5498C54.4466 47.2835 52.2305 49.4997 49.4967 49.4997C46.7629 49.4997 44.5467 47.2835 44.5467 44.5498C44.5467 41.816 46.7629 39.5998 49.4967 39.5998Z" fill="#7951F9"/>
<path d="M12.7135 22.6164C13.3576 21.9721 13.3576 20.9276 12.7135 20.2833L9.41349 16.9833C8.76607 16.358 7.73696 16.367 7.1005 17.0034C6.46405 17.6399 6.45511 18.669 7.08041 19.3164L10.3804 22.6164C11.0247 23.2605 12.0692 23.2605 12.7135 22.6164Z" fill="#7951F9"/>
<path d="M25.6593 5.12327C25.2675 5.31874 24.9695 5.66192 24.8308 6.07723C24.6922 6.49254 24.7243 6.94593 24.9201 7.33756L26.5701 10.6375C26.8336 11.1651 27.3585 11.5121 27.9472 11.5477C28.5358 11.5833 29.0988 11.3021 29.4239 10.8101C29.7491 10.3181 29.7871 9.69003 29.5236 9.16245L27.8736 5.86247C27.6781 5.47068 27.3349 5.17265 26.9196 5.034C26.5043 4.89536 26.0509 4.92747 25.6593 5.12327Z" fill="#7951F9"/>
<path d="M87.4465 23.0998C87.884 23.0997 88.3037 22.9258 88.613 22.6164L91.913 19.3164C92.5383 18.669 92.5294 17.6399 91.8929 17.0034C91.2564 16.367 90.2273 16.358 89.5799 16.9833L86.2799 20.2833C85.8082 20.7552 85.6671 21.4647 85.9224 22.0812C86.1777 22.6977 86.7792 23.0997 87.4465 23.0998Z" fill="#7951F9"/>
<path d="M73.3341 5.12327C72.9425 4.92747 72.4891 4.89536 72.0738 5.034C71.6585 5.17265 71.3153 5.47068 71.1198 5.86247L69.4698 9.16245C69.2063 9.69003 69.2443 10.3181 69.5695 10.8101C69.8946 11.3021 70.4576 11.5833 71.0462 11.5477C71.6349 11.5121 72.1598 11.1651 72.4233 10.6375L74.0733 7.33756C74.2691 6.94593 74.3012 6.49254 74.1626 6.07723C74.0239 5.66192 73.7259 5.31874 73.3341 5.12327Z" fill="#7951F9"/>
<path d="M47.8467 1.64999V4.94997C47.8467 5.86124 48.5854 6.59996 49.4967 6.59996C50.408 6.59996 51.1467 5.86124 51.1467 4.94997V1.64999C51.1467 0.738726 50.408 0 49.4967 0C48.5854 0 47.8467 0.738726 47.8467 1.64999Z" fill="#7951F9"/>
<path d="M8.24695 72.5996C8.68451 72.5995 9.10413 72.4256 9.41349 72.1161L12.7135 68.8162C13.3388 68.1687 13.3298 67.1396 12.6934 66.5032C12.0569 65.8667 11.0278 65.8578 10.3804 66.4831L7.0804 69.7831C6.60866 70.2549 6.46756 70.9645 6.72289 71.581C6.97821 72.1974 7.5797 72.5994 8.24695 72.5996Z" fill="#7951F9"/>
<path d="M26.3968 84.1495C27.0252 84.1529 27.601 83.7991 27.8818 83.237L29.5318 79.937C29.9392 79.1215 29.6082 78.1301 28.7926 77.7228C27.977 77.3154 26.9857 77.6464 26.5783 78.462L24.9283 81.7619C24.6733 82.2722 24.7 82.878 24.9989 83.3639C25.2977 83.8498 25.8264 84.1469 26.3968 84.1495Z" fill="#7951F9"/>
<path d="M90.7464 72.5996C91.4137 72.5994 92.0152 72.1974 92.2705 71.581C92.5258 70.9645 92.3847 70.2549 91.913 69.7831L88.613 66.4831C87.9656 65.8578 86.9365 65.8667 86.3 66.5032C85.6636 67.1396 85.6546 68.1687 86.2799 68.8162L89.5799 72.1161C89.8893 72.4256 90.3089 72.5995 90.7464 72.5996Z" fill="#7951F9"/>
<path d="M72.5966 84.1495C73.1682 84.1492 73.6989 83.853 73.9994 83.3667C74.2998 82.8804 74.3272 82.2733 74.0717 81.7619L72.4217 78.462C72.0143 77.6464 71.023 77.3154 70.2074 77.7228C69.3918 78.1301 69.0608 79.1215 69.4682 79.937L71.1182 83.237C71.398 83.797 71.9706 84.1504 72.5966 84.1495Z" fill="#7951F9"/>
<path d="M51.1467 87.4495V84.1495C51.1467 83.2382 50.408 82.4995 49.4967 82.4995C48.5854 82.4995 47.8467 83.2382 47.8467 84.1495V87.4495C47.8467 88.3607 48.5854 89.0995 49.4967 89.0995C50.408 89.0995 51.1467 88.3607 51.1467 87.4495Z" fill="#7951F9"/>
</svg>
