<svg width="93" height="91" viewBox="0 0 93 91" fill="none" xmlns="http://www.w3.org/2000/svg">
<path opacity="0.3" d="M45.508 89.1345C44.9493 88.9469 44.4517 88.6171 44.0665 88.179L2.27849 39.8428C1.81161 39.3046 1.55365 38.6226 1.54999 37.9166H18.0265L45.508 89.1345Z" fill="#7951F9"/>
<path d="M46.1435 89.271C45.9284 89.2416 45.7159 89.1959 45.508 89.1345L18.0265 37.9166H35.4175L46.1435 89.271Z" fill="#E8EDFC"/>
<path opacity="0.3" d="M91.45 37.9166C91.4463 38.6226 91.1884 39.3046 90.7215 39.8428L48.9335 88.179C48.5483 88.6171 48.0507 88.9469 47.492 89.1345L74.9735 37.9166H91.45Z" fill="#7951F9"/>
<path d="M70.091 12.4215L66.0145 20.7328L57.5825 37.9166L46.5 12.1333H68.7425C69.2078 12.1351 69.6673 12.2333 70.091 12.4215Z" fill="#E8EDFC"/>
<path d="M46.5 12.1333L35.4175 37.9166L26.9855 20.7328L22.909 12.4215C23.3327 12.2333 23.7922 12.1351 24.2575 12.1333H46.5Z" fill="#E8EDFC"/>
<path opacity="0.2" d="M57.5825 37.9166H35.4175L46.5 12.1333L57.5825 37.9166Z" fill="#7951F9"/>
<path opacity="0.3" d="M57.5825 37.9166L46.872 89.271C46.6294 89.2861 46.3861 89.2861 46.1435 89.271L35.4175 37.9166H57.5825Z" fill="#7951F9"/>
<path opacity="0.2" d="M90.7215 35.9753L71.176 13.2405C70.8792 12.8939 70.509 12.6144 70.091 12.4215L66.0145 20.7328L57.5825 37.9167H91.45C91.4491 37.2057 91.191 36.518 90.7215 35.9753Z" fill="#7951F9"/>
<path opacity="0.2" d="M22.909 12.4215C22.491 12.6144 22.1208 12.8939 21.824 13.2405L2.27849 35.9753C1.809 36.518 1.55093 37.2057 1.54999 37.9167H35.4175L26.9855 20.7328L22.909 12.4215Z" fill="#7951F9"/>
<path d="M74.9735 37.9166L47.492 89.1345C47.2894 89.1959 47.0821 89.2416 46.872 89.271L57.5825 37.9166H74.9735Z" fill="#E8EDFC"/>
<path d="M2.2785 39.8428L44.0665 88.179C44.9038 89.149 46.2578 89.5267 47.492 89.1345C47.8609 89.0101 47.8594 89.1982 48.7863 88.2381C48.7646 88.2154 48.7367 88.2033 48.7165 88.179L6.9285 39.8428C5.95756 38.7287 5.95756 37.0894 6.9285 35.9753L26.474 13.2405C27.0771 12.5364 27.9686 12.1307 28.9075 12.1333H24.2575C23.3186 12.1307 22.4271 12.5364 21.824 13.2405L2.2785 35.9753C1.30756 37.0894 1.30756 38.7287 2.2785 39.8428Z" fill="white"/>
<path d="M1.07683 34.9911L9.05003 25.7091L11.4215 27.6595L3.44833 36.9415L1.07683 34.9911Z" fill="white"/>
<path d="M7.45398 32.3141C8.00478 31.6729 7.92009 30.7162 7.26483 30.1773C6.60956 29.6383 5.63183 29.7211 5.081 30.3623C4.53016 31.0034 4.61479 31.9601 5.27003 32.4992C5.5847 32.758 5.99159 32.884 6.40117 32.8493C6.81074 32.8145 7.18945 32.6221 7.45398 32.3141Z" fill="#7951F9"/>
<path d="M3.27514 34.8212C2.96012 34.5605 2.55184 34.4334 2.14074 34.4681C1.72965 34.5028 1.34968 34.6965 1.08499 35.0062C-0.362966 36.6895 -0.356413 39.1499 1.10049 40.8257L42.8807 89.1619C43.7848 90.1987 45.1078 90.796 46.5008 90.796C47.8937 90.796 49.2167 90.1987 50.1208 89.1619L91.8995 40.8257C93.3546 39.1484 93.3585 36.688 91.9088 35.0062L72.3679 12.2562C71.4655 11.2119 70.1371 10.6117 68.7394 10.6167H24.2544C22.8557 10.6132 21.5271 11.2157 20.6258 12.2623L9.07059 25.7197C8.54461 26.3627 8.63926 27.299 9.28379 27.8287C9.92833 28.3585 10.8871 28.2881 11.4436 27.6701L22.4099 14.9059L32.9607 36.4001H20.5514L24.1474 29.5068C24.3994 29.0243 24.3691 28.4469 24.0681 27.9921C23.767 27.5374 23.2408 27.2743 22.6878 27.302C22.1348 27.3298 21.6389 27.6441 21.3869 28.1266L17.0701 36.4001H3.76339C3.93293 35.8256 3.74172 35.2073 3.27514 34.8212ZM3.95714 39.4334H17.0841L32.4709 68.112C32.7208 68.6051 33.224 68.927 33.7858 68.9532C34.3476 68.9794 34.8798 68.7058 35.1765 68.2383C35.4731 67.7707 35.4876 67.1826 35.2144 66.7015L20.5855 39.4334H34.1589L43.7689 85.487L3.95714 39.4334ZM47.7539 87.2084C47.6367 87.3279 47.4987 87.426 47.3463 87.4981L37.3224 39.4334H55.676L48.1461 75.5301C48.0203 76.0667 48.2016 76.6279 48.6197 76.9963C49.0378 77.3647 49.6272 77.4824 50.1594 77.3039C50.6917 77.1254 51.0833 76.6787 51.1825 76.1367L58.8411 39.4334H72.4144L57.7855 66.7015C57.5123 67.1826 57.5269 67.7707 57.8235 68.2383C58.1202 68.7058 58.6524 68.9794 59.2142 68.9532C59.776 68.927 60.2792 68.6051 60.529 68.112L75.9174 39.4334H89.0428L47.7539 87.2084ZM89.0552 36.4001H60.0392L70.5901 14.9074L89.0552 36.4001ZM57.6693 34.2206L48.8327 13.6501H67.7691L57.6693 34.2206ZM44.175 13.6501L35.34 34.2206L25.2309 13.6501H44.175ZM46.5 16.0479L55.242 36.4001H37.758L46.5 16.0479Z" fill="#7951F9"/>
<path d="M6.2 89.4833C6.2 90.321 6.89396 91 7.75 91H10.85C11.706 91 12.4 90.321 12.4 89.4833C12.4 88.6457 11.706 87.9667 10.85 87.9667H7.75C6.89396 87.9667 6.2 88.6457 6.2 89.4833Z" fill="#7951F9"/>
<path d="M17.05 91H31C31.8561 91 32.55 90.321 32.55 89.4833C32.55 88.6457 31.8561 87.9667 31 87.9667H17.05C16.194 87.9667 15.5 88.6457 15.5 89.4833C15.5 90.321 16.194 91 17.05 91Z" fill="#7951F9"/>
<path d="M82.15 87.9667C81.2939 87.9667 80.6 88.6457 80.6 89.4833C80.6 90.321 81.2939 91 82.15 91H85.25C86.106 91 86.8 90.321 86.8 89.4833C86.8 88.6457 86.106 87.9667 85.25 87.9667H82.15Z" fill="#7951F9"/>
<path d="M62 87.9667C61.144 87.9667 60.45 88.6457 60.45 89.4833C60.45 90.321 61.144 91 62 91H75.95C76.806 91 77.5 90.321 77.5 89.4833C77.5 88.6457 76.806 87.9667 75.95 87.9667H62Z" fill="#7951F9"/>
<path d="M83.7 0C82.844 0 82.15 0.679035 82.15 1.51667V4.55C82.15 5.38763 82.844 6.06667 83.7 6.06667C84.5561 6.06667 85.25 5.38763 85.25 4.55V1.51667C85.25 0.679035 84.5561 0 83.7 0Z" fill="#7951F9"/>
<path d="M83.7 12.1333C82.844 12.1333 82.15 12.8123 82.15 13.65V16.6833C82.15 17.5209 82.844 18.2 83.7 18.2C84.5561 18.2 85.25 17.5209 85.25 16.6833V13.65C85.25 12.8123 84.5561 12.1333 83.7 12.1333Z" fill="#7951F9"/>
<path d="M79.05 7.58337H75.95C75.094 7.58337 74.4 8.26241 74.4 9.10004C74.4 9.93767 75.094 10.6167 75.95 10.6167H79.05C79.9061 10.6167 80.6 9.93767 80.6 9.10004C80.6 8.26241 79.9061 7.58337 79.05 7.58337Z" fill="#7951F9"/>
<path d="M91.45 7.58337H88.35C87.4939 7.58337 86.8 8.26241 86.8 9.10004C86.8 9.93767 87.4939 10.6167 88.35 10.6167H91.45C92.306 10.6167 93 9.93767 93 9.10004C93 8.26241 92.306 7.58337 91.45 7.58337Z" fill="#7951F9"/>
<path d="M9.3 63.7C8.44396 63.7 7.75 64.379 7.75 65.2166V68.2499C7.75 69.0876 8.44396 69.7666 9.3 69.7666C10.156 69.7666 10.85 69.0876 10.85 68.2499V65.2166C10.85 64.379 10.156 63.7 9.3 63.7Z" fill="#7951F9"/>
<path d="M9.3 75.8334C8.44396 75.8334 7.75 76.5124 7.75 77.35V80.3834C7.75 81.221 8.44396 81.9 9.3 81.9C10.156 81.9 10.85 81.221 10.85 80.3834V77.35C10.85 76.5124 10.156 75.8334 9.3 75.8334Z" fill="#7951F9"/>
<path d="M4.64998 71.2833H1.54998C0.693943 71.2833 -1.52588e-05 71.9624 -1.52588e-05 72.8C-1.52588e-05 73.6376 0.693943 74.3167 1.54998 74.3167H4.64998C5.50603 74.3167 6.19999 73.6376 6.19999 72.8C6.19999 71.9624 5.50603 71.2833 4.64998 71.2833Z" fill="#7951F9"/>
<path d="M17.05 71.2833H13.95C13.094 71.2833 12.4 71.9624 12.4 72.8C12.4 73.6376 13.094 74.3167 13.95 74.3167H17.05C17.9061 74.3167 18.6 73.6376 18.6 72.8C18.6 71.9624 17.9061 71.2833 17.05 71.2833Z" fill="#7951F9"/>
</svg>
